<svg width="350" height="66" viewBox="0 0 350 66" fill="none" xmlns="http://www.w3.org/2000/svg">
<path fill-rule="evenodd" clip-rule="evenodd" d="M54.225 0.839959C53.6791 0.390134 52.9514 0.255186 52.3146 0.390134C40.9428 2.99912 33.8923 14.2448 36.5305 25.4904C37.6677 30.6184 40.8063 35.1166 45.1731 38.0405C39.9421 39.9748 35.6208 43.7983 33.1645 48.7464C30.6627 43.7983 26.3414 39.9748 21.1104 38.0405C22.8389 36.871 24.3855 35.4765 25.7046 33.8571C28.7068 30.1236 30.3898 25.5354 30.3898 20.7672C30.3898 15.9991 28.7523 11.3659 25.7501 7.63233C22.7479 4.03372 18.6541 1.46971 14.0144 0.435116C12.7863 0.165221 11.5582 0.884941 11.2852 2.09947C11.2397 2.2794 11.2397 2.45933 11.2397 2.63926V43.9782C11.2397 55.9436 21.0649 65.6598 33.1645 65.6598C45.264 65.6598 55.0893 55.9436 55.0893 43.9782V2.63926C55.0893 1.91954 54.7709 1.28979 54.225 0.839959ZM40.488 20.8122C40.4425 14.2448 44.3999 8.30709 50.4952 5.74306V35.9263C44.3999 33.2724 40.4425 27.3347 40.488 20.8122ZM25.7957 20.7672C25.8411 14.2447 21.8838 8.26205 15.7885 5.69804V35.8364C21.8838 33.2724 25.8411 27.3346 25.7957 20.7672ZM15.7885 43.9781V41.3691C24.431 42.4937 30.8447 49.7809 30.8902 58.3726V60.9816C22.2477 59.857 15.7885 52.5698 15.7885 43.9781ZM35.4388 58.3726V60.9816C44.0813 59.857 50.495 52.5698 50.5405 43.9781V41.3691C41.898 42.4937 35.4388 49.7809 35.4388 58.3726Z" fill="url(#paint0_linear_2549_1030)"/>
<path fill-rule="evenodd" clip-rule="evenodd" d="M278.412 23.6676L278.441 23.668C285.414 23.668 289.765 28.9825 289.765 37.7137C289.765 46.4447 285.478 51.8225 278.441 51.8225H277.865C276.137 51.7593 271.979 51.3164 269.42 48.2795L263.534 51.3797H263.47C263.406 51.3797 263.342 51.3164 263.342 51.2531V13.7348C263.342 13.6716 263.406 13.6083 263.47 13.6083H269.676C269.74 13.6083 269.804 13.6716 269.804 13.7348V27.0845C272.726 23.5787 277.948 23.6603 278.412 23.6676ZM139.159 13.672H145.365C145.429 13.672 145.493 13.672 145.493 13.7353V51.3169C145.493 51.3802 145.429 51.4435 145.365 51.4435H139.159C139.095 51.4435 139.031 51.3802 139.031 51.3169V13.7986C139.031 13.7353 139.095 13.672 139.159 13.672ZM276.458 46.3814C272.299 46.3814 269.676 43.0914 269.676 37.7136C269.676 32.3357 272.299 29.0457 276.458 29.0457C280.616 29.0457 283.175 32.2725 283.175 37.7136C283.175 43.1547 280.68 46.3814 276.458 46.3814ZM322.266 17.2784C322.266 15.2538 323.929 13.672 325.912 13.672C327.96 13.672 329.559 15.2538 329.559 17.2784C329.559 19.303 327.96 20.8847 325.912 20.8847C323.865 20.8847 322.266 19.303 322.266 17.2784ZM97.5098 30.7539L93.3513 29.8048C88.9368 28.7925 87.1453 27.4639 87.1453 25.1229C87.1453 22.1493 89.8323 20.188 93.9274 20.188C97.8298 20.188 100.581 22.086 101.029 25.1862C101.029 25.2495 101.093 25.3127 101.157 25.3127H107.362C107.426 25.3127 107.49 25.2495 107.49 25.1862C107.171 18.9226 101.668 14.6203 93.9914 14.6203C85.8658 14.6203 80.4279 18.9858 80.4279 25.5026C80.4279 30.9436 83.4989 34.1071 90.1523 35.6255L94.8228 36.7011C99.4293 37.7767 101.349 39.2319 101.349 41.7626C101.349 44.673 98.3419 46.8241 94.1187 46.8241C89.6402 46.8241 86.4419 44.7995 86.0579 41.6993C86.0579 41.636 85.9938 41.5728 85.9298 41.5728H79.5958C79.5318 41.5728 79.4678 41.636 79.4678 41.6993C79.7878 48.216 85.3538 52.3917 93.6714 52.3917C102.5 52.3917 108.002 48.0262 108.002 41.0034C108.002 35.3725 104.867 32.3355 97.5098 30.7539ZM349.52 29.3623C349.52 29.4256 349.456 29.4889 349.392 29.4889L343.634 29.4256V42.5855C343.634 45.1795 344.722 46.3184 347.281 46.3184H349.329C349.392 46.3184 349.456 46.3816 349.456 46.4449V51.4431C349.456 51.5064 349.392 51.5696 349.329 51.5696H346.066C339.732 51.5696 337.173 49.4185 337.173 44.1039V29.4256H332.95C332.886 29.4256 332.822 29.3623 332.822 29.2991V24.4274C332.822 24.3641 332.886 24.3009 332.95 24.3009H334.933C336.212 24.3009 337.173 23.2886 337.173 22.0865V17.5944C337.173 17.5311 337.237 17.4678 337.301 17.4678H343.506C343.57 17.4678 343.634 17.5311 343.634 17.5944V24.3009H349.392C349.456 24.3009 349.52 24.3641 349.52 24.4274V29.3623ZM162.447 23.6052C154.45 23.6052 149.46 29.1096 149.46 37.904C149.46 42.2062 150.675 45.7493 152.915 48.2168C155.154 50.6842 158.481 51.9496 162.447 51.9496C168.909 51.9496 173.516 48.9127 174.731 43.8512C174.731 43.788 174.731 43.7247 174.667 43.7247H168.781C168.754 43.7247 168.738 43.7247 168.725 43.7296C168.706 43.7362 168.69 43.7516 168.653 43.7878C167.758 45.7491 165.646 46.8248 162.639 46.8248C158.609 46.8248 156.05 44.041 155.922 39.6122V39.4224H174.923C174.987 39.4224 175.051 39.3592 175.051 39.2959V37.2712C175.051 28.73 170.317 23.542 162.447 23.6052ZM162.384 28.7296C158.737 28.7296 156.242 31.1971 155.922 35.0565H168.59C168.398 31.1971 166.031 28.7296 162.384 28.7296ZM123.357 23.541C116.767 23.541 112.224 26.6412 111.713 31.4496C111.713 31.5129 111.777 31.5761 111.841 31.5761H117.663C117.695 31.5761 117.71 31.5603 117.727 31.5445C117.742 31.5287 117.759 31.5129 117.791 31.5129C118.366 29.7413 120.222 28.7924 123.037 28.7924C126.3 28.7924 128.091 30.2475 128.091 32.7783V34.9294L121.117 35.3723C114.336 35.7519 110.625 38.7255 110.625 43.5972C110.625 48.4689 114.272 51.7589 119.71 51.8221H120.35C123.869 51.8221 126.876 50.2404 128.411 47.7097L134.297 51.3793C134.361 51.4425 134.425 51.3793 134.425 51.3793V51.316V32.8415C134.489 26.9576 130.394 23.541 123.357 23.541ZM121.63 46.8241C125.34 46.8241 128.092 44.4831 128.092 41.383V39.3584L122.014 39.738C118.687 39.9278 117.023 41.1299 117.023 43.2811C117.023 45.4322 118.815 46.8241 121.63 46.8241ZM308.318 23.668L308.29 23.6676C307.825 23.6603 302.604 23.5787 299.681 27.0845V13.7348C299.681 13.6716 299.617 13.6083 299.553 13.6083H293.348C293.284 13.6083 293.22 13.6716 293.22 13.7348V51.2531C293.22 51.2799 293.22 51.2954 293.224 51.3091C293.231 51.3278 293.246 51.3432 293.284 51.3797H293.411L299.298 48.2795C301.857 51.3164 306.015 51.7593 307.743 51.8225H308.318C315.356 51.8225 319.643 46.4447 319.643 37.7137C319.643 28.9825 315.292 23.668 308.318 23.668ZM299.554 37.7136C299.554 43.0914 302.177 46.3814 306.336 46.3814C310.558 46.3814 313.053 43.1547 313.053 37.7136C313.053 32.2725 310.494 29.0457 306.336 29.0457C302.177 29.0457 299.554 32.3357 299.554 37.7136ZM225.722 36.9542C229.881 35.4358 232.504 31.5131 232.504 26.7047C232.504 19.7452 227.706 15.4429 220.028 15.4429H205.377C205.313 15.4429 205.249 15.5062 205.249 15.5694V51.253C205.249 51.3162 205.313 51.3795 205.377 51.3795H211.839C211.903 51.3795 211.967 51.3162 211.967 51.253V37.9666H218.941L225.978 51.3162C225.978 51.3795 226.042 51.3795 226.106 51.3795H233.4C233.464 51.3795 233.528 51.3162 233.528 51.253V51.1897L225.722 36.9542ZM211.904 32.7152H219.261C223.292 32.7152 225.531 30.5641 225.531 26.8945C225.531 23.2249 223.164 21.0105 219.069 21.0105H211.904V32.7152ZM329.047 24.1113H322.841C322.777 24.1113 322.713 24.1745 322.713 24.2378V51.3168C322.713 51.3801 322.777 51.4434 322.841 51.4434H329.047C329.111 51.4434 329.175 51.3801 329.175 51.3168V24.2378C329.175 24.1745 329.111 24.1113 329.047 24.1113ZM188.231 34.6131L193.029 35.6886C198.34 36.8907 200.771 39.1684 200.835 43.2176C200.835 48.4056 195.908 52.0119 189.063 52.0119C182.217 52.0119 177.866 49.0383 177.355 44.0401C177.355 43.9768 177.419 43.9136 177.483 43.9136H183.625C183.688 43.9136 183.752 43.9136 183.752 43.9768C184.328 45.9381 186.312 47.0769 189.255 47.0769C192.326 47.0769 194.437 45.7483 194.437 43.8503C194.437 42.3318 193.285 41.4461 190.726 40.8766L185.864 39.7378C180.554 38.5357 178.058 36.0682 178.058 31.9558C178.058 27.0208 182.601 23.541 189.127 23.541C195.716 23.541 199.811 26.4514 200.259 31.4496C200.259 31.5129 200.195 31.5761 200.131 31.5761H194.309C194.245 31.5761 194.181 31.5761 194.181 31.5129C193.733 29.6148 191.942 28.476 189.127 28.476C186.312 28.476 184.264 29.8046 184.264 31.6394C184.264 33.0946 185.48 33.9804 188.231 34.6131ZM247.859 23.5411C241.269 23.5411 236.726 26.6412 236.215 31.4496C236.215 31.5129 236.279 31.5762 236.343 31.5762H242.165C242.197 31.5762 242.212 31.5603 242.229 31.5446C242.244 31.5287 242.261 31.5129 242.293 31.5129C242.868 29.7414 244.724 28.7924 247.539 28.7924C250.802 28.7924 252.593 30.2476 252.593 32.7783V34.9294L245.619 35.3723C238.838 35.7519 235.127 38.7255 235.127 43.5972C235.127 48.4689 238.774 51.7589 244.212 51.8221H244.852C248.371 51.8221 251.378 50.2404 252.913 47.7097L258.799 51.3793C258.863 51.4425 258.927 51.3793 258.927 51.3793V51.316V32.8416C258.991 26.9576 254.896 23.5411 247.859 23.5411ZM246.132 46.8241C249.843 46.8241 252.594 44.4832 252.594 41.383V39.3584L246.516 39.738C243.125 39.9279 241.525 41.1299 241.525 43.2811C241.525 45.4323 243.317 46.8241 246.132 46.8241Z" fill="white"/>
<defs>
<linearGradient id="paint0_linear_2549_1030" x1="-6.64415" y1="39.293" x2="50.8576" y2="64.919" gradientUnits="userSpaceOnUse">
<stop stop-color="#FE0000"/>
<stop offset="1" stop-color="#BE0000"/>
</linearGradient>
</defs>
</svg>
