<svg width="24" height="25" viewBox="0 0 24 25" fill="none" xmlns="http://www.w3.org/2000/svg">
<path d="M12 0C14.4844 0 16.5 2.01562 16.5 4.5V4.6875C16.5 5.4375 15.8906 6 15.1406 6H8.8125C8.0625 6 7.5 5.4375 7.5 4.6875V4.5C7.5 2.01562 9.51562 0 12 0ZM1.82812 4.82812C2.25 4.40625 2.95312 4.40625 3.375 4.82812L6.79688 8.25C7.54688 7.78125 8.4375 7.5 9.375 7.5H14.625C15.5625 7.5 16.4062 7.78125 17.1562 8.25L20.5781 4.82812C21 4.40625 21.7031 4.40625 22.125 4.82812C22.5938 5.29688 22.5938 6 22.125 6.42188L18.75 9.84375C19.2188 10.5938 19.5 11.4375 19.5 12.375H22.875C23.4844 12.375 24 12.8906 24 13.5C24 14.1562 23.4844 14.625 22.875 14.625H19.5V15C19.5 16.3125 19.1719 17.4844 18.6094 18.5625L22.1719 22.0781C22.5938 22.5469 22.5938 23.25 22.1719 23.6719C21.7031 24.1406 21 24.1406 20.5781 23.6719L17.25 20.3438C15.8906 21.7031 14.0156 22.5 12 22.5C9.9375 22.5 8.0625 21.7031 6.70312 20.3906L3.42188 23.6719C2.95312 24.1406 2.25 24.1406 1.82812 23.6719C1.35938 23.25 1.35938 22.5469 1.82812 22.125L5.34375 18.5625C4.78125 17.4844 4.5 16.3125 4.5 15V14.625H1.125C0.46875 14.625 0 14.1562 0 13.5C0 12.8906 0.46875 12.375 1.125 12.375H4.5C4.5 11.4375 4.73438 10.5938 5.20312 9.84375L1.82812 6.42188C1.35938 6 1.35938 5.29688 1.82812 4.875V4.82812ZM6.75 12.375V15C6.75 17.5312 8.48438 19.6406 10.875 20.1562V13.125C10.875 12.5156 11.3438 12 12 12C12.6094 12 13.125 12.5156 13.125 13.125V20.1562C15.4688 19.6406 17.25 17.5312 17.25 15V12.375C17.25 10.9688 16.0312 9.75 14.625 9.75H9.375C7.92188 9.75 6.75 10.9688 6.75 12.375Z" fill="#E6331E"/>
</svg>
