<svg width="30" height="24" viewBox="0 0 30 24" fill="none" xmlns="http://www.w3.org/2000/svg">
<path d="M5.05611 2.25C4.86861 2.25 4.72799 2.39062 4.68111 2.57812L3.74361 7.5H9.22799L9.74361 2.25H5.05611ZM8.99361 9.75H3.32174L2.24361 15.3281C2.19674 15.5625 2.38424 15.75 2.61861 15.75H8.38424L8.99361 9.75ZM11.2436 9.75L10.6342 15.75H18.7436L18.1342 9.75H11.2436ZM17.8999 7.5L17.3842 2.25H11.9936L11.478 7.5H17.8999ZM20.3842 9.75L20.9936 15.75H26.7592C26.9936 15.75 27.1811 15.5625 27.1342 15.3281L26.0561 9.75H20.3842ZM25.6342 7.5L24.6967 2.57812C24.6499 2.39062 24.5092 2.25 24.3217 2.25H19.6342L20.1499 7.5H25.6342ZM2.47799 2.15625C2.71236 0.9375 3.79049 0 5.05611 0H24.3217C25.5874 0 26.6655 0.9375 26.8999 2.15625L29.3374 14.9062C29.6186 16.5 28.3999 18 26.7592 18H15.8374V21.75H19.5874C20.1967 21.75 20.7124 22.2656 20.7124 22.875C20.7124 23.5312 20.1967 24 19.5874 24H9.83736C9.18111 24 8.71236 23.5312 8.71236 22.875C8.71236 22.2656 9.18111 21.75 9.83736 21.75H13.5874V18H2.61861C0.977987 18 -0.240763 16.5 0.0404873 14.9062L2.47799 2.15625Z" fill="#E6331E"/>
</svg>
