<svg width="27" height="24" viewBox="0 0 27 24" fill="none" xmlns="http://www.w3.org/2000/svg">
<path d="M14.2188 0.246094L26.5938 10.7461C27.0625 11.168 27.1094 11.8711 26.7344 12.3398C26.3125 12.8086 25.6094 12.8555 25.1406 12.4805L24.0156 11.4961V20.2148C24.0156 22.3242 22.3281 23.9648 20.2656 23.9648H6.76562C4.65625 23.9648 3.01562 22.3242 3.01562 20.2148V11.4961L1.84375 12.4805C1.375 12.8555 0.671875 12.8086 0.25 12.3398C-0.125 11.8711 -0.078125 11.168 0.390625 10.7461L12.7656 0.246094C13.1875 -0.0820312 13.7969 -0.0820312 14.2188 0.246094ZM5.26562 20.2148C5.26562 21.0586 5.92188 21.7148 6.76562 21.7148H9.01562V14.5898C9.01562 13.5586 9.8125 12.7148 10.8906 12.7148H16.1406C17.1719 12.7148 18.0156 13.5586 18.0156 14.5898V21.7148H20.2656C21.0625 21.7148 21.7656 21.0586 21.7656 20.2148V9.57422L13.5156 2.58984L5.26562 9.57422V20.2148ZM11.2656 21.7148H15.7656V14.9648H11.2656V21.7148Z" fill="#E6331E"/>
</svg>
