<svg width="21" height="24" viewBox="0 0 21 24" fill="none" xmlns="http://www.w3.org/2000/svg">
<path d="M14.25 5.96484C14.25 4.65234 13.5 3.43359 12.375 2.73047C11.2031 2.07422 9.75 2.07422 8.625 2.73047C7.45312 3.43359 6.75 4.65234 6.75 5.96484C6.75 7.32422 7.45312 8.54297 8.625 9.24609C9.75 9.90234 11.2031 9.90234 12.375 9.24609C13.5 8.54297 14.25 7.32422 14.25 5.96484ZM4.5 5.96484C4.5 3.85547 5.625 1.88672 7.5 0.808594C9.32812 -0.269531 11.625 -0.269531 13.5 0.808594C15.3281 1.88672 16.5 3.85547 16.5 5.96484C16.5 8.12109 15.3281 10.0898 13.5 11.168C11.625 12.2461 9.32812 12.2461 7.5 11.168C5.625 10.0898 4.5 8.12109 4.5 5.96484ZM2.29688 21.7148H18.6562C18.2344 18.7617 15.7031 16.4648 12.6094 16.4648H8.34375C5.25 16.4648 2.71875 18.7617 2.29688 21.7148ZM0 22.6055C0 17.9648 3.70312 14.2148 8.34375 14.2148H12.6094C17.25 14.2148 21 17.9648 21 22.6055C21 23.3555 20.3438 23.9648 19.5938 23.9648H1.35938C0.609375 23.9648 0 23.3555 0 22.6055Z" fill="#E6331E"/>
</svg>
