<svg width="24" height="25" viewBox="0 0 24 25" fill="none" xmlns="http://www.w3.org/2000/svg">
<path d="M5.25 5.625C5.25 5.76562 5.25 5.90625 5.25 6C5.29688 6.5625 4.92188 7.07812 4.40625 7.21875C3.14062 7.5 2.25 8.625 2.25 9.9375C2.25 11.4844 3.42188 12.7031 4.92188 12.75C4.92188 12.75 4.92188 12.75 4.96875 12.75H5.01562H18.7031C20.3906 12.75 21.7031 11.4375 21.7031 9.75C21.7031 8.10938 20.3906 6.75 18.7031 6.75C18.1406 6.75 17.625 6.32812 17.5781 5.76562C17.4375 4.40625 16.3594 3.375 15 3.375C14.2969 3.375 13.6406 3.65625 13.1719 4.07812C12.9375 4.3125 12.6094 4.40625 12.2812 4.40625C11.9531 4.35938 11.6719 4.17188 11.4844 3.84375C10.875 2.90625 9.79688 2.25 8.625 2.25C6.75 2.25 5.25 3.79688 5.25 5.625ZM8.625 0C10.1719 0 11.625 0.703125 12.6562 1.73438C13.3594 1.35938 14.1562 1.125 15 1.125C17.1562 1.125 19.0312 2.57812 19.6406 4.59375C22.125 5.01562 24 7.17188 24 9.75C24 12.6562 21.6094 15 18.75 15H5.0625H4.875C4.78125 15 4.73438 15 4.6875 15C2.0625 14.8125 0 12.6562 0 9.9375C0 7.875 1.21875 6.14062 3 5.34375C3.14062 2.39062 5.625 0 8.625 0ZM3.79688 16.5938C4.35938 16.875 4.64062 17.5312 4.40625 18.0938L3.89062 19.2188C3.65625 19.7812 3 20.0625 2.4375 19.7812C1.875 19.5469 1.59375 18.8906 1.82812 18.3281L2.34375 17.2031C2.57812 16.6406 3.23438 16.3594 3.79688 16.5938ZM9.42188 16.5938C9.98438 16.875 10.2656 17.5312 10.0312 18.0938L7.78125 23.3438C7.5 23.9062 6.84375 24.1875 6.28125 23.9062C5.71875 23.6719 5.4375 23.0156 5.71875 22.4531L7.96875 17.2031C8.20312 16.6406 8.85938 16.3594 9.42188 16.5938ZM20.2969 16.5938C20.8594 16.875 21.1406 17.5312 20.9062 18.0938L18.6562 23.3438C18.375 23.9062 17.7188 24.1875 17.1562 23.9062C16.5938 23.6719 16.3125 23.0156 16.5938 22.4531L18.8438 17.2031C19.0781 16.6406 19.7344 16.3594 20.2969 16.5938ZM15.2812 18.0938L14.7656 19.2188C14.5312 19.7812 13.875 20.0625 13.3125 19.8281C12.75 19.5469 12.4688 18.8906 12.7031 18.3281L13.2188 17.2031C13.4531 16.6406 14.1094 16.3594 14.6719 16.5938C15.2344 16.875 15.5156 17.5312 15.2812 18.0938ZM1.5 24C0.65625 24 0 23.3438 0 22.5C0 21.7031 0.65625 21 1.5 21C2.29688 21 3 21.7031 3 22.5C3 23.3438 2.29688 24 1.5 24ZM13.5 22.5C13.5 23.3438 12.7969 24 12 24C11.1562 24 10.5 23.3438 10.5 22.5C10.5 21.7031 11.1562 21 12 21C12.7969 21 13.5 21.7031 13.5 22.5Z" fill="#E6331E"/>
</svg>
