<svg width="27" height="25" viewBox="0 0 27 25" fill="none" xmlns="http://www.w3.org/2000/svg">
<path d="M2.39062 0.0822506C3 0.316626 3.28125 0.972876 3.04688 1.53538C2.53125 2.89475 2.25 4.44163 2.25 5.9885C2.25 7.58225 2.53125 9.08225 3.04688 10.4885C3.28125 11.051 3 11.7073 2.39062 11.9416C1.82812 12.176 1.17188 11.8479 0.9375 11.2854C0.328125 9.64475 0 7.8635 0 5.9885C0 4.16038 0.328125 2.37913 0.9375 0.738501C1.17188 0.129126 1.82812 -0.152124 2.39062 0.0822506ZM24.5625 0.0822506C25.125 -0.152124 25.7812 0.129126 26.0156 0.738501C26.625 2.37913 27 4.16038 27 5.9885C27 7.8635 26.625 9.64475 26.0156 11.2854C25.7812 11.8479 25.125 12.176 24.5625 11.9416C23.9531 11.7073 23.6719 11.051 23.9062 10.4885C24.4219 9.08225 24.75 7.58225 24.75 5.9885C24.75 4.44163 24.4219 2.89475 23.9062 1.53538C23.6719 0.972876 23.9531 0.316626 24.5625 0.0822506ZM13.6406 8.9885C13.5938 8.9885 13.5469 8.9885 13.5 8.9885C13.4062 8.9885 13.3594 8.9885 13.3125 8.9885L11.2031 13.4885H15.75L13.6406 8.9885ZM9.14062 17.9885H17.8594L16.7812 15.7385H10.1719L9.14062 17.9885ZM8.0625 20.2385L6.60938 23.3791C6.375 23.9416 5.67188 24.176 5.10938 23.8948C4.54688 23.6604 4.3125 22.9573 4.59375 22.3948L11.2969 8.051C10.7812 7.53538 10.5 6.78538 10.5 5.9885C10.5 4.34788 11.8125 2.9885 13.5 2.9885C15.1406 2.9885 16.5 4.34788 16.5 5.9885C16.5 6.78538 16.1719 7.53538 15.6562 8.051L22.3594 22.3948C22.6406 22.9573 22.4062 23.6604 21.8438 23.8948C21.2812 24.176 20.5781 23.9416 20.3438 23.3791L18.8906 20.2385H8.0625ZM7.64062 3.45725C7.3125 4.25413 7.125 5.09788 7.125 5.9885C7.125 6.926 7.3125 7.76975 7.64062 8.56663C7.875 9.12913 7.64062 9.78538 7.03125 10.0198C6.46875 10.301 5.8125 10.0198 5.57812 9.45725C5.10938 8.37913 4.875 7.25413 4.875 5.9885C4.875 4.76975 5.10938 3.59788 5.57812 2.56663C5.8125 2.00413 6.46875 1.72288 7.03125 1.95725C7.64062 2.2385 7.875 2.89475 7.64062 3.45725ZM21.375 2.56663C21.8438 3.59788 22.125 4.76975 22.125 5.9885C22.125 7.25413 21.8438 8.37913 21.375 9.45725C21.1406 10.0198 20.4844 10.301 19.9219 10.0198C19.3594 9.78538 19.0781 9.12913 19.3125 8.56663C19.6875 7.76975 19.875 6.926 19.875 5.9885C19.875 5.09788 19.6875 4.25413 19.3125 3.45725C19.0781 2.89475 19.3125 2.2385 19.9219 1.95725C20.4844 1.72288 21.1406 2.00413 21.375 2.56663Z" fill="#E6331E"/>
</svg>
